# xmcd
#
# Track frame offsets:
#	150
#	13126
#	29194
#	48776
#	61223
#	76019
#	91806
#	106433
#	121496
#	140454
#	156759
#	172041
#	187902
#	204508
#	221816
#	239416
#	256594
#	273052
#	287433
#	304438
#	319148
#	337507
#
# Disc length: 4762 seconds
#
# Revision: 0
# Processed by: cddbd v1.5.2PL0 Copyright (c) Steve Scherf et al.
# Submitted via: EasyCDDAExtractor 12.0.7.1
#
DISCID=2e129816
DTITLE=Various Artist - Бомба
DYEAR=2001
DGENRE=
TTITLE0=Hi-Fi - Так легко
TTITLE1=Валерия - Не обманывай
TTITLE2=Revoльvers - Не уходи (Remix)
TTITLE3=Стрелки - Солнце за горой (Remix by Virus)
TTITLE4=Игорек - Хэй, ребята
TTITLE5=Турбомода - Турболюбовь (Ла-ла-ла)
TTITLE6=ВИА Сливки - Иногда
TTITLE7=Наталья Ветлицкая - Снежинка
TTITLE8=2+2 - Раз, два, три
TTITLE9=ВИА Гра - Обними меня
TTITLE10=Жуки - Танкист (Remix)
TTITLE11=Reflex - Встречай новый день
TTITLE12=Руки вверх - Думала
TTITLE13=Иванушки Int. - И только дождь стучит
TTITLE14=Гости из будущего - Так отважно
TTITLE15=Дискотека Авария and Жуки - Влечение
TTITLE16=Тату - Я сошла с ума (Remix)
TTITLE17=Вирус - Почему
TTITLE18=Татьяна Буланова - Тебя люблю
TTITLE19=Хали-Гали - Анюта (Remix)
TTITLE20=Света - Что мне делать
TTITLE21=Ariana - Под испанским небом (Happyendless Mix)
EXTD=
EXTT0=
EXTT1=
EXTT2=
EXTT3=
EXTT4=
EXTT5=
EXTT6=
EXTT7=
EXTT8=
EXTT9=
EXTT10=
EXTT11=
EXTT12=
EXTT13=
EXTT14=
EXTT15=
EXTT16=
EXTT17=
EXTT18=
EXTT19=
EXTT20=
EXTT21=
PLAYORDER=
